<?xml version="1.0" encoding="UTF-8"?>
<svg version="1.1" xmlns="http://www.w3.org/2000/svg" width="296" height="296">
<path d="M0 0 C97.68 0 195.36 0 296 0 C296 97.68 296 195.36 296 296 C198.32 296 100.64 296 0 296 C0 198.32 0 100.64 0 0 Z " fill="#FEFEFE" transform="translate(0,0)"/>
<path d="M0 0 C2.625 -0.1875 2.625 -0.1875 5 0 C5.31638428 0.60360352 5.63276855 1.20720703 5.95874023 1.82910156 C14.77735648 18.69449902 14.77735648 18.69449902 26 34 C26.59167969 34.6909375 27.18335937 35.381875 27.79296875 36.09375 C31.91730398 40.54840956 36.57762965 43.33184951 42 46 C38.35611731 41.33312472 34.37879187 37.04315761 30.33984375 32.71875 C28.19350975 30.22484606 26.47558267 27.93640951 25 25 C25.3125 22.1875 25.3125 22.1875 26 20 C32.35826642 20.43876657 32.35826642 20.43876657 35.2109375 22.93359375 C36.28214844 24.17302734 36.28214844 24.17302734 37.375 25.4375 C43.82857119 31.73805765 51.38486915 34.34472734 59.78857422 37.33569336 C70.7920947 41.33100911 81.15506804 47.36493677 87.05859375 57.88671875 C89.60890879 63.51205479 90.15428931 68.82009016 90.1875 74.9375 C90.20167969 76.12214844 90.21585937 77.30679688 90.23046875 78.52734375 C89.99170707 82.12495618 89.57436296 84.75198992 88 88 C85.89697266 89.32006836 85.89697266 89.32006836 83 90 C80.27513197 89.33221175 77.9331838 88.58584267 75.34765625 87.5625 C74.60693375 87.28462646 73.86621124 87.00675293 73.1030426 86.72045898 C71.52944448 86.12813678 69.95861736 85.52840805 68.39044189 84.921875 C66.05730813 84.02210091 63.71629157 83.14770873 61.37060547 82.28125 C57.49530405 80.84601761 53.63324142 79.378859 49.77612305 77.89550781 C48.20297906 77.29311799 46.62772944 76.69620145 45.05053711 76.10449219 C25.71911927 68.84851954 14.81421199 58.85056261 6 40 C1.1701156 28.43552294 -2.73367862 15.64722201 -2 3 C-1.34 2.01 -0.68 1.02 0 0 Z " fill="#8AC4D3" transform="translate(58,117)"/>
<path d="M0 0 C1.9375 0.6875 1.9375 0.6875 2.9375 2.6875 C5.55939277 22.33020485 -5.69321128 44.23740068 -17.08203125 59.37109375 C-25.92987679 70.10010285 -38.71371871 73.87562276 -51.5 78.25 C-53.4898824 78.93795372 -55.47891694 79.62828075 -57.46743774 80.32015991 C-58.77045454 80.77329433 -60.07414002 81.22451082 -61.37850952 81.67373657 C-66.72272978 83.52744853 -71.95891989 85.61065133 -77.17993164 87.78491211 C-80.32100746 88.76844368 -82.79002669 88.93698934 -86.0625 88.6875 C-88.30025493 87.2213847 -88.90888215 86.14835354 -89.75 83.625 C-91.05900354 71.32036671 -89.63257591 60.75825268 -82.0625 50.6875 C-75.22601209 42.63311045 -64.68494633 38.56822594 -54.88671875 35.23046875 C-46.88344128 32.49784864 -41.23991137 29.97327236 -35.2734375 23.640625 C-32.6801755 21.34975751 -30.37629173 20.58003989 -27.0625 19.6875 C-25.7425 21.0075 -24.4225 22.3275 -23.0625 23.6875 C-28.6509465 31.96608694 -34.84904226 38.83206314 -42.0625 45.6875 C-34.99952057 42.94367098 -30.46191563 38.99940484 -25.0625 33.6875 C-24.44246094 33.08035156 -23.82242188 32.47320312 -23.18359375 31.84765625 C-15.36482735 23.55722413 -9.7684928 12.72632307 -5.03515625 2.4453125 C-3.67485455 -0.01306407 -2.77141541 -0.41991143 0 0 Z " fill="#8AC5D4" transform="translate(242.0625,117.3125)"/>
<path d="M0 0 C-0.61746094 0.58265625 -1.23492187 1.1653125 -1.87109375 1.765625 C-31.51548663 30.46248021 -45.25317276 70.31269869 -53.47851562 109.81469727 C-54 112 -54 112 -55 114 C-55.66 114 -56.32 114 -57 114 C-57.34611328 112.31197266 -57.34611328 112.31197266 -57.69921875 110.58984375 C-62.1042571 89.61533182 -68.37525738 71.09523776 -83 55 C-83.55042969 54.36835937 -84.10085937 53.73671875 -84.66796875 53.0859375 C-94.99493928 41.91751012 -109.95527474 34.37480832 -124 29 C-124 28.34 -124 27.68 -124 27 C-104.86528097 21.70831885 -82.8385918 31.15273198 -65.546875 38.546875 C-61.84609047 40.08821483 -61.84609047 40.08821483 -58 41 C-55.61182895 39.33218409 -55.61182895 39.33218409 -53.3125 36.9375 C-50.20818736 33.99180187 -47.24619056 31.34470753 -43.625 29.0625 C-40.04300837 26.78022408 -36.8550021 24.25896013 -33.625 21.5 C-28.26563567 16.95664211 -22.719598 12.7285047 -17.0625 8.5625 C-16.24539551 7.95921875 -15.42829102 7.3559375 -14.58642578 6.734375 C-3.70190337 -1.23396779 -3.70190337 -1.23396779 0 0 Z " fill="#8BC4D3" transform="translate(208,33)"/>
<path d="M0 0 C4.92164313 4.31646331 9.33480409 8.78611871 13.44921875 13.875 C9.30248851 13.875 7.91972156 12.11722063 4.76171875 9.5 C3.76785156 8.68789062 2.77398437 7.87578125 1.75 7.0390625 C0.99074219 6.32492188 0.23148438 5.61078125 -0.55078125 4.875 C-0.55078125 4.215 -0.55078125 3.555 -0.55078125 2.875 C-1.19917969 2.63394531 -1.84757813 2.39289063 -2.515625 2.14453125 C-4.91677503 1.14018922 -7.18023556 0.07078283 -9.4921875 -1.11328125 C-25.60328009 -9.27773375 -42.25601516 -14.23023023 -60.421875 -14.328125 C-61.26186539 -14.33382507 -62.10185577 -14.33952515 -62.96730042 -14.34539795 C-64.74145264 -14.3548044 -66.51562199 -14.36136451 -68.28979492 -14.36523438 C-70.94938416 -14.37485923 -73.60817237 -14.40589039 -76.26757812 -14.4375 C-89.88125923 -14.52322347 -102.87121432 -13.53475924 -115.55078125 -8.125 C-116.84593237 -7.65179071 -118.1442305 -7.1871186 -119.4453125 -6.73046875 C-126.825848 -4.07347597 -133.72402265 -1.22535627 -140.51171875 2.7734375 C-142.55078125 3.875 -142.55078125 3.875 -144.55078125 3.875 C-144.88078125 4.865 -145.21078125 5.855 -145.55078125 6.875 C-147.30633954 8.48120903 -149.12881031 10.01532489 -150.98828125 11.5 C-151.97699219 12.29664063 -152.96570313 13.09328125 -153.984375 13.9140625 C-156.55078125 15.875 -156.55078125 15.875 -158.55078125 16.875 C-157.10166964 12.10353494 -154.27162274 9.05511587 -150.80078125 5.625 C-149.93622314 4.77010986 -149.93622314 4.77010986 -149.05419922 3.89794922 C-110.42929569 -33.14148703 -40.77755218 -33.97088574 0 0 Z " fill="#8BC4D2" transform="translate(218.55078125,239.125)"/>
<path d="M0 0 C4.90713015 2.31973425 7.8111048 5.71776931 11 10 C12.81020278 15.43060835 12.70097747 20.09743772 10.3125 25.25 C7.91595515 29.55365448 5.00464706 31.91640699 0.6875 34.25 C-4.47124482 35.68964972 -8.92860276 35.86331228 -13.6875 33.375 C-18.55418991 30.23054054 -22.66548237 25.7384258 -24 20 C-24.09002689 13.94569198 -22.96286966 9.73342765 -19 5 C-12.83158263 -0.43408197 -8.10039388 -0.75377191 0 0 Z " fill="#8AC4D3" transform="translate(152,25)"/>
<path d="M0 0 C1.65 0 3.3 0 5 0 C5 0.99 5 1.98 5 3 C5.66 3 6.32 3 7 3 C7 4.32 7 5.64 7 7 C5.0625 6.625 5.0625 6.625 3 6 C2.67 5.34 2.34 4.68 2 4 C1.34 4 0.68 4 0 4 C0 2.68 0 1.36 0 0 Z " fill="#87C6D6" transform="translate(58,119)"/>
<path d="M0 0 C0.33 0.66 0.66 1.32 1 2 C1.66 2.33 2.32 2.66 3 3 C2.34 4.98 1.68 6.96 1 9 C0.01 8.67 -0.98 8.34 -2 8 C-1.67 7.01 -1.34 6.02 -1 5 C-1.38932856 2.85744207 -1.38932856 2.85744207 -2 1 C-1.34 0.67 -0.68 0.34 0 0 Z " fill="#EEF3F4" transform="translate(59,250)"/>
</svg>
